<svg xmlns="http://www.w3.org/2000/svg" width="900" height="220" viewBox="0 0 900 220" role="img">
  <title>sorrow404Null</title>
  <defs>
    <linearGradient id="bg" x1="0" y1="0" x2="1" y2="1">
      <stop offset="0%" stop-color="#0b0708"/>
      <stop offset="55%" stop-color="#1a0a0f"/>
      <stop offset="100%" stop-color="#2a0d14"/>
    </linearGradient>
    <linearGradient id="glow" x1="0" y1="0" x2="1" y2="0">
      <stop offset="0%" stop-color="#e60026" stop-opacity="0"/>
      <stop offset="50%" stop-color="#e60026" stop-opacity="0.55"/>
      <stop offset="100%" stop-color="#e60026" stop-opacity="0"/>
    </linearGradient>
    <linearGradient id="bar" x1="0" y1="0" x2="1" y2="0">
      <stop offset="0%" stop-color="#7a1020"/>
      <stop offset="50%" stop-color="#ff3355"/>
      <stop offset="100%" stop-color="#7a1020"/>
    </linearGradient>
  </defs>

  <rect width="900" height="220" rx="22" fill="url(#bg)"/>
  <rect x="1" y="1" width="898" height="218" rx="21" fill="none" stroke="#5a1822" stroke-width="1"/>
  <rect x="40" y="0" width="820" height="3" fill="url(#bar)"/>

  <!-- soft grid -->
  <g stroke="#ffffff" stroke-opacity="0.035" stroke-width="1">
    <path d="M40 70 H860"/>
    <path d="M40 110 H860"/>
    <path d="M40 150 H860"/>
    <path d="M180 40 V180"/>
    <path d="M450 40 V180"/>
    <path d="M720 40 V180"/>
  </g>

  <rect x="120" y="48" width="660" height="70" rx="18" fill="url(#glow)"/>

  <text x="450" y="78" text-anchor="middle"
        font-family="ui-monospace, SFMono-Regular, Menlo, Consolas, monospace"
        font-size="42" font-weight="700" fill="#fff5f7">sorrow404Null</text>

  <text x="450" y="118" text-anchor="middle"
        font-family="ui-monospace, SFMono-Regular, Menlo, Consolas, monospace"
        font-size="16" fill="#ff8a9a">uni student  //  android internals  //  still lazy</text>

  <!-- chips -->
  <g font-family="ui-monospace, SFMono-Regular, Menlo, Consolas, monospace" font-size="12">
    <rect x="205" y="150" width="110" height="28" rx="14" fill="#2b1016" stroke="#7a2433"/>
    <text x="260" y="168" text-anchor="middle" fill="#ffb3be">kernel</text>

    <rect x="330" y="150" width="110" height="28" rx="14" fill="#2b1016" stroke="#7a2433"/>
    <text x="385" y="168" text-anchor="middle" fill="#ffb3be">hooks</text>

    <rect x="455" y="150" width="110" height="28" rx="14" fill="#2b1016" stroke="#7a2433"/>
    <text x="510" y="168" text-anchor="middle" fill="#ffb3be">OEM / RE</text>

    <rect x="580" y="150" width="110" height="28" rx="14" fill="#2b1016" stroke="#7a2433"/>
    <text x="635" y="168" text-anchor="middle" fill="#ffb3be">rom lab</text>
  </g>
</svg>
